<?xml version="1.0" encoding="UTF-8" standalone="no"?>
<!-- Created with Inkscape (http://www.inkscape.org/) -->

<svg
   width="161.23141mm"
   height="77.727371mm"
   viewBox="0 0 161.23141 77.727371"
   version="1.1"
   id="svg1"
   xml:space="preserve"
   sodipodi:docname="linuxFileTree.svg"
   inkscape:version="1.3.2 (1:1.3.2+202311252150+091e20ef0f)"
   xmlns:inkscape="http://www.inkscape.org/namespaces/inkscape"
   xmlns:sodipodi="http://sodipodi.sourceforge.net/DTD/sodipodi-0.dtd"
   xmlns="http://www.w3.org/2000/svg"
   xmlns:svg="http://www.w3.org/2000/svg"><sodipodi:namedview
     id="namedview1"
     pagecolor="#ffffff"
     bordercolor="#000000"
     borderopacity="0.25"
     inkscape:showpageshadow="2"
     inkscape:pageopacity="0.0"
     inkscape:pagecheckerboard="0"
     inkscape:deskcolor="#d1d1d1"
     inkscape:document-units="mm"
     inkscape:zoom="2.9077441"
     inkscape:cx="286.82029"
     inkscape:cy="131.37332"
     inkscape:window-width="1850"
     inkscape:window-height="1016"
     inkscape:window-x="1350"
     inkscape:window-y="27"
     inkscape:window-maximized="1"
     inkscape:current-layer="layer1" /><defs
     id="defs1" /><g
     inkscape:label="Layer 1"
     inkscape:groupmode="layer"
     id="layer1"
     transform="translate(-52.23008,-117.28406)"><path
       id="rect1-6-0-5"
       style="fill:#ffffff;stroke:#000000;stroke-linecap:round"
       d="m 113.9767,123.30637 h 11.80494 c 0.1261,0 0.22762,0.10152 0.22762,0.22763 v 6.86314 c 0,0.1261 -0.10152,0.22763 -0.22762,0.22763 H 113.9767 c -0.1261,0 -0.22762,-0.10153 -0.22762,-0.22763 V 123.534 c 0,-0.12611 0.10152,-0.22763 0.22762,-0.22763 z" /><text
       xml:space="preserve"
       style="font-size:4.58611px;line-height:1.25;font-family:sans-serif;stroke-width:0.264583"
       x="119.04166"
       y="128.4245"
       id="text1-6-7-0-8-2-2"><tspan
         sodipodi:role="line"
         id="tspan1-2-0-6-7-3-2"
         style="font-weight:bold;font-size:4.58611px;stroke-width:0.264583"
         x="119.04166"
         y="128.4245">/</tspan></text><g
       id="g48"><path
         id="rect1-6-0-8"
         style="fill:#ffffff;stroke:#000000;stroke-linecap:round"
         d="m 137.84867,139.80956 h 11.80494 c 0.1261,0 0.22762,0.10152 0.22762,0.22762 v 6.86314 c 0,0.12611 -0.10152,0.22763 -0.22762,0.22763 h -11.80494 c -0.1261,0 -0.22762,-0.10152 -0.22762,-0.22763 v -6.86314 c 0,-0.1261 0.10152,-0.22762 0.22762,-0.22762 z" /><text
         xml:space="preserve"
         style="font-size:3.52778px;line-height:1.25;font-family:sans-serif;stroke-width:0.264583"
         x="141.74092"
         y="143.80206"
         id="text1-6-7-0-8-20-4-9-2"><tspan
           sodipodi:role="line"
           id="tspan1-2-0-6-7-6-7-3-5"
           style="font-weight:bold;font-size:3.52778px;stroke-width:0.264583"
           x="141.74092"
           y="143.80206">...</tspan></text></g><g
       id="g43"><path
         id="rect1"
         style="fill:#ffffff;stroke:#000000;stroke-linecap:round"
         d="m 59.270362,139.80956 h 11.804934 c 0.126104,0 0.227625,0.10152 0.227625,0.22762 v 6.86314 c 0,0.12611 -0.101521,0.22763 -0.227625,0.22763 H 59.270362 c -0.126105,0 -0.227626,-0.10152 -0.227626,-0.22763 v -6.86314 c 0,-0.1261 0.101521,-0.22762 0.227626,-0.22762 z" /><text
         xml:space="preserve"
         style="font-size:3.52778px;line-height:1.25;font-family:sans-serif;stroke-width:0.264583"
         x="62.039513"
         y="144.78392"
         id="text1"><tspan
           sodipodi:role="line"
           id="tspan1"
           style="font-weight:bold;font-size:3.52778px;stroke-width:0.264583"
           x="62.039513"
           y="144.78392">bin</tspan></text></g><g
       id="g44"><path
         id="rect1-8"
         style="fill:#ffffff;stroke:#000000;stroke-linecap:round"
         d="m 74.687548,139.80956 h 11.804935 c 0.126104,0 0.227625,0.10152 0.227625,0.22762 v 6.86314 c 0,0.12611 -0.101521,0.22763 -0.227625,0.22763 H 74.687548 c -0.126104,0 -0.227625,-0.10152 -0.227625,-0.22763 v -6.86314 c 0,-0.1261 0.101521,-0.22762 0.227625,-0.22762 z" /><text
         xml:space="preserve"
         style="font-size:3.52778px;line-height:1.25;font-family:sans-serif;stroke-width:0.264583"
         x="76.927879"
         y="144.78392"
         id="text1-6"><tspan
           sodipodi:role="line"
           id="tspan1-2"
           style="font-weight:bold;font-size:3.52778px;stroke-width:0.264583"
           x="76.927879"
           y="144.78392">dev</tspan></text></g><g
       id="g45"><path
         id="rect1-4"
         style="fill:#ffffff;stroke:#000000;stroke-linecap:round"
         d="m 90.104731,139.80956 h 11.804939 c 0.1261,0 0.22762,0.10152 0.22762,0.22762 v 6.86314 c 0,0.12611 -0.10152,0.22763 -0.22762,0.22763 H 90.104731 c -0.126104,0 -0.227625,-0.10152 -0.227625,-0.22763 v -6.86314 c 0,-0.1261 0.101521,-0.22762 0.227625,-0.22762 z" /><text
         xml:space="preserve"
         style="font-size:3.52778px;line-height:1.25;font-family:sans-serif;stroke-width:0.264583"
         x="92.964317"
         y="144.68228"
         id="text1-6-7"><tspan
           sodipodi:role="line"
           id="tspan1-2-0"
           style="font-weight:bold;font-size:3.52778px;stroke-width:0.264583"
           x="92.964317"
           y="144.68228">etc</tspan></text></g><g
       id="g46"><path
         id="rect1-87"
         style="fill:#ffffff;stroke:#000000;stroke-linecap:round"
         d="m 105.52191,139.80956 h 13.29733 c 0.1261,0 0.22762,0.10152 0.22762,0.22762 v 6.86314 c 0,0.1261 -0.10152,0.22762 -0.22762,0.22762 h -13.29733 c -0.1261,0 -0.22762,-0.10152 -0.22762,-0.22762 v -6.86314 c 0,-0.1261 0.10152,-0.22762 0.22762,-0.22762 z" /><text
         xml:space="preserve"
         style="font-size:3.52778px;line-height:1.25;font-family:sans-serif;stroke-width:0.264583"
         x="106.60588"
         y="144.78392"
         id="text1-6-7-0"><tspan
           sodipodi:role="line"
           id="tspan1-2-0-6"
           style="font-weight:bold;font-size:3.52778px;stroke-width:0.264583"
           x="106.60588"
           y="144.78392">home</tspan></text></g><g
       id="g47"><path
         id="rect1-2"
         style="fill:#ffffff;stroke:#000000;stroke-linecap:round"
         d="m 122.43148,139.80956 h 11.80494 c 0.1261,0 0.22762,0.10152 0.22762,0.22762 v 6.86314 c 0,0.12611 -0.10152,0.22763 -0.22762,0.22763 h -11.80494 c -0.1261,0 -0.22762,-0.10152 -0.22762,-0.22763 v -6.86314 c 0,-0.1261 0.10152,-0.22762 0.22762,-0.22762 z" /><text
         xml:space="preserve"
         style="font-size:3.52778px;line-height:1.25;font-family:sans-serif;stroke-width:0.264583"
         x="124.44616"
         y="144.34036"
         id="text1-6-7-0-8"><tspan
           sodipodi:role="line"
           id="tspan1-2-0-6-7"
           style="font-weight:bold;font-size:3.52778px;stroke-width:0.264583"
           x="124.44616"
           y="144.34036">tmp</tspan></text></g><g
       id="g49"><path
         id="rect1-6"
         style="fill:#ffffff;stroke:#000000;stroke-linecap:round"
         d="m 153.26585,139.80956 h 11.80493 c 0.12611,0 0.22763,0.10152 0.22763,0.22762 v 6.86314 c 0,0.12611 -0.10152,0.22763 -0.22763,0.22763 h -11.80493 c -0.12611,0 -0.22763,-0.10152 -0.22763,-0.22763 v -6.86314 c 0,-0.1261 0.10152,-0.22762 0.22763,-0.22762 z" /><text
         xml:space="preserve"
         style="font-size:3.52778px;line-height:1.25;font-family:sans-serif;stroke-width:0.264583"
         x="155.86015"
         y="144.43166"
         id="text1-6-7-0-8-2"><tspan
           sodipodi:role="line"
           id="tspan1-2-0-6-7-3"
           style="font-weight:bold;font-size:3.52778px;stroke-width:0.264583"
           x="155.86015"
           y="144.43166">usr</tspan></text></g><g
       id="g50"><path
         id="rect1-6-0-2"
         style="fill:#ffffff;stroke:#000000;stroke-linecap:round"
         d="m 168.68304,139.80956 h 11.80493 c 0.12611,0 0.22763,0.10152 0.22763,0.22762 v 6.86314 c 0,0.12611 -0.10152,0.22763 -0.22763,0.22763 h -11.80493 c -0.12611,0 -0.22763,-0.10152 -0.22763,-0.22763 v -6.86314 c 0,-0.1261 0.10152,-0.22762 0.22763,-0.22762 z" /><text
         xml:space="preserve"
         style="font-size:3.52778px;line-height:1.25;font-family:sans-serif;stroke-width:0.264583"
         x="171.74072"
         y="144.78392"
         id="text1-6-7-0-8-20"><tspan
           sodipodi:role="line"
           id="tspan1-2-0-6-7-6"
           style="font-weight:bold;font-size:3.52778px;stroke-width:0.264583"
           x="171.74072"
           y="144.78392">vol</tspan></text></g><g
       id="g35"
       transform="translate(-0.081379,2.74921)"><path
         id="rect1-6-0-3-6"
         style="fill:#ffffff;stroke:#000000;stroke-linecap:round"
         d="m 89.054585,153.56352 h 19.303585 c 0.12611,0 0.22763,0.10152 0.22763,0.22763 v 10.33881 c 0,0.12611 -0.10152,0.22763 -0.22763,0.22763 H 89.054585 c -0.126105,0 -0.227626,-0.10152 -0.227626,-0.22763 v -10.33881 c 0,-0.12611 0.101521,-0.22763 0.227626,-0.22763 z"
         sodipodi:nodetypes="sssssssss" /><text
         xml:space="preserve"
         style="font-size:3.52778px;line-height:1.25;font-family:sans-serif;stroke-width:0.264583"
         x="99.462303"
         y="157.71515"
         id="text1-3"><tspan
           sodipodi:role="line"
           id="tspan1-6"
           style="font-weight:bold;font-size:3.52778px;text-align:center;text-anchor:middle;stroke-width:0.264583"
           x="99.462303"
           y="157.71515">ubuntu</tspan><tspan
           sodipodi:role="line"
           style="font-weight:bold;font-size:3.52778px;text-align:center;text-anchor:middle;stroke-width:0.264583"
           x="99.462303"
           y="162.12488"
           id="tspan10">(you!)</tspan></text></g><g
       id="g29"
       transform="translate(-0.081379,2.9497067)"><g
         id="g36"><g
           id="g51"><path
             id="rect1-6-0-3"
             style="fill:#ffffff;stroke:#000000;stroke-linecap:round"
             d="m 117.44337,153.36302 h 15.21835 c 0.12611,0 0.22763,0.10152 0.22763,0.22763 v 10.33881 c 0,0.1261 -0.10152,0.22762 -0.22763,0.22762 h -15.21835 c -0.1261,0 -0.22762,-0.10152 -0.22762,-0.22762 v -10.33881 c 0,-0.12611 0.10152,-0.22763 0.22762,-0.22763 z"
             sodipodi:nodetypes="sssssssss" /><text
             xml:space="preserve"
             style="font-size:3.52778px;line-height:1.25;font-family:sans-serif;stroke-width:0.264583"
             x="125.77567"
             y="153.46063"
             id="text1-3-3"><tspan
               sodipodi:role="line"
               id="tspan1-6-1"
               style="font-weight:bold;font-size:3.52778px;text-align:center;text-anchor:middle;stroke-width:0.264583"
               x="125.77567"
               y="153.46063" /><tspan
               sodipodi:role="line"
               style="font-weight:bold;font-size:3.52778px;text-align:center;text-anchor:middle;stroke-width:0.264583"
               x="125.77567"
               y="157.87036"
               id="tspan9">other</tspan><tspan
               sodipodi:role="line"
               style="font-weight:bold;font-size:3.52778px;text-align:center;text-anchor:middle;stroke-width:0.264583"
               x="125.77567"
               y="162.28008"
               id="tspan51">user</tspan></text></g></g></g><g
       id="g37"
       transform="translate(-0.081379,2.74921)"><path
         id="rect1-6-0-1"
         style="fill:#ffffff;stroke:#000000;stroke-linecap:round"
         d="m 165.68255,155.30136 h 17.80591 c 0.1261,0 0.22763,0.10152 0.22763,0.22763 v 6.86314 c 0,0.1261 -0.10153,0.22762 -0.22763,0.22762 h -17.80591 c -0.1261,0 -0.22762,-0.10152 -0.22762,-0.22762 v -6.86314 c 0,-0.12611 0.10152,-0.22763 0.22762,-0.22763 z" /><text
         xml:space="preserve"
         style="font-size:3.52778px;line-height:1.25;font-family:sans-serif;stroke-width:0.264583"
         x="167.90288"
         y="160.27571"
         id="text1-6-7-0-8-20-4"><tspan
           sodipodi:role="line"
           id="tspan1-2-0-6-7-6-7"
           style="font-weight:bold;font-size:3.52778px;stroke-width:0.264583"
           x="167.90288"
           y="160.27571">funmic</tspan></text></g><g
       id="g41"
       transform="translate(0,10.583333)"><path
         id="rect1-6-0-4-6-8"
         style="fill:#ffffff;stroke:#000000;stroke-linecap:round"
         d="m 157.6882,171.0874 h 22.76848 c 0.1261,0 0.22762,0.10152 0.22762,0.22763 v 6.86314 c 0,0.1261 -0.10152,0.22762 -0.22762,0.22762 H 157.6882 c -0.12611,0 -0.22763,-0.10152 -0.22763,-0.22762 v -6.86314 c 0,-0.12611 0.10152,-0.22763 0.22763,-0.22763 z" /><text
         xml:space="preserve"
         style="font-size:3.52778px;line-height:1.25;font-family:sans-serif;stroke-width:0.264583"
         x="160.45108"
         y="176.06177"
         id="text1-6-7-0-8-20-4-9"><tspan
           sodipodi:role="line"
           id="tspan1-2-0-6-7-6-7-3"
           style="font-weight:bold;font-size:3.52778px;stroke-width:0.264583"
           x="160.45108"
           y="176.06177">datasets</tspan></text></g><g
       id="g38"
       transform="translate(2.6458334,7.4083335)"><path
         id="rect1-6-0-4"
         style="fill:#ffffff;stroke:#000000;stroke-linecap:round"
         d="m 70.89136,171.0874 h 22.768481 c 0.126104,0 0.227625,0.10152 0.227625,0.22763 v 6.86314 c 0,0.1261 -0.101521,0.22762 -0.227625,0.22762 H 70.89136 c -0.126105,0 -0.227626,-0.10152 -0.227626,-0.22762 v -6.86314 c 0,-0.12611 0.101521,-0.22763 0.227626,-0.22763 z" /><text
         xml:space="preserve"
         style="font-size:3.52778px;line-height:1.25;font-family:sans-serif;stroke-width:0.264583"
         x="72.044525"
         y="176.06177"
         id="text1-3-3-8-6"><tspan
           sodipodi:role="line"
           id="tspan1-6-1-4-1"
           style="font-weight:bold;font-size:3.52778px;stroke-width:0.264583"
           x="72.044525"
           y="176.06177">databases</tspan></text></g><g
       id="g40"
       transform="translate(0,10.583333)"><path
         id="rect1-6-0-4-6"
         style="fill:#ffffff;stroke:#000000;stroke-linecap:round"
         d="m 131.72367,171.0874 h 22.76848 c 0.12611,0 0.22763,0.10152 0.22763,0.22763 v 6.86314 c 0,0.1261 -0.10152,0.22762 -0.22763,0.22762 h -22.76848 c -0.1261,0 -0.22762,-0.10152 -0.22762,-0.22762 v -6.86314 c 0,-0.12611 0.10152,-0.22763 0.22762,-0.22763 z" /><text
         xml:space="preserve"
         style="font-size:3.52778px;line-height:1.25;font-family:sans-serif;stroke-width:0.264583"
         x="132.87685"
         y="176.06177"
         id="text1-3-3-8-6-3"><tspan
           sodipodi:role="line"
           id="tspan1-6-1-4-1-1"
           style="font-weight:bold;font-size:3.52778px;stroke-width:0.264583"
           x="132.87685"
           y="176.06177">databases</tspan></text></g><g
       id="g39"
       transform="translate(2.6458334,7.4083335)"><path
         id="rect1-6-0-4-0"
         style="fill:#ffffff;stroke:#000000;stroke-linecap:round"
         d="m 96.170268,171.0874 h 22.768482 c 0.1261,0 0.22762,0.10152 0.22762,0.22763 v 6.86314 c 0,0.1261 -0.10152,0.22762 -0.22762,0.22762 H 96.170268 c -0.126105,0 -0.227626,-0.10152 -0.227626,-0.22762 v -6.86314 c 0,-0.12611 0.101521,-0.22763 0.227626,-0.22763 z" /><text
         xml:space="preserve"
         style="font-size:3.52778px;line-height:1.25;font-family:sans-serif;stroke-width:0.264583"
         x="97.590424"
         y="176.06177"
         id="text1-3-3-8"><tspan
           sodipodi:role="line"
           id="tspan1-6-1-4"
           style="font-weight:bold;font-size:3.52778px;stroke-width:0.264583"
           x="97.590424"
           y="176.06177">someFiles</tspan></text></g><g
       id="g42"
       transform="translate(0,10.583333)"><path
         id="rect1-6-0-4-6-6"
         style="fill:#ffffff;stroke:#000000;stroke-linecap:round"
         d="m 183.65274,171.0874 h 22.76848 c 0.1261,0 0.22762,0.10152 0.22762,0.22763 v 6.86314 c 0,0.1261 -0.10152,0.22762 -0.22762,0.22762 h -22.76848 c -0.12611,0 -0.22763,-0.10152 -0.22763,-0.22762 v -6.86314 c 0,-0.12611 0.10152,-0.22763 0.22763,-0.22763 z" /><text
         xml:space="preserve"
         style="font-size:3.52778px;line-height:1.25;font-family:sans-serif;stroke-width:0.264583"
         x="184.82742"
         y="176.06177"
         id="text1-6-7-0-8-20-4-9-2-1"><tspan
           sodipodi:role="line"
           id="tspan1-2-0-6-7-6-7-3-5-4"
           style="font-weight:bold;font-size:3.52778px;stroke-width:0.264583"
           x="184.82742"
           y="176.06177">Miniconda</tspan></text></g><path
       id="path33"
       style="fill:none;fill-opacity:1;stroke:#000000;stroke-width:1;stroke-linecap:round"
       d="m 119.87917,134.80067 h 54.70633 m -54.70633,-4.1759 v 4.1759 H 65.172827"
       sodipodi:nodetypes="ccccc" /><path
       id="path33-4"
       style="fill:none;fill-opacity:1;stroke:#000000;stroke-width:1;stroke-linecap:round"
       d="m 112.17058,151.30384 h 13.59434 m -13.59434,-4.1759 v 4.1759 H 99.418747"
       sodipodi:nodetypes="ccccc" /><path
       style="fill:none;fill-opacity:1;stroke:#000000;stroke-width:1;stroke-linecap:round"
       d="m 65.172827,139.80956 v -5.00889"
       id="path34" /><path
       style="fill:none;fill-opacity:1;stroke:#000000;stroke-width:1;stroke-linecap:round"
       d="m 80.590016,139.80956 v -5.00889"
       id="path34-1" /><path
       style="fill:none;fill-opacity:1;stroke:#000000;stroke-width:1;stroke-linecap:round"
       d="m 96.007201,139.80956 v -5.00889"
       id="path34-7" /><path
       style="fill:none;fill-opacity:1;stroke:#000000;stroke-width:1;stroke-linecap:round"
       d="m 112.17058,139.80956 v -5.00889"
       id="path34-8" /><path
       style="fill:none;fill-opacity:1;stroke:#000000;stroke-width:1;stroke-linecap:round"
       d="m 128.33395,139.80956 v -5.00889"
       id="path34-9" /><path
       style="fill:none;fill-opacity:1;stroke:#000000;stroke-width:1;stroke-linecap:round"
       d="m 143.75114,139.80956 v -5.00889"
       id="path34-3" /><path
       style="fill:none;fill-opacity:1;stroke:#000000;stroke-width:1;stroke-linecap:round"
       d="m 159.16831,139.80956 v -5.00889"
       id="path34-0" /><path
       style="fill:none;fill-opacity:1;stroke:#000000;stroke-width:1;stroke-linecap:round"
       d="m 174.5855,139.80956 v -5.00889"
       id="path35" /><path
       style="fill:none;fill-opacity:1;stroke:#000000;stroke-width:1;stroke-linecap:round"
       d="m 99.418747,156.31273 v -5.00889"
       id="path34-89" /><path
       style="fill:none;fill-opacity:1;stroke:#000000;stroke-width:1;stroke-linecap:round"
       d="m 125.76492,156.31273 v -5.00889"
       id="path34-89-0" /><path
       style="fill:none;fill-opacity:1;stroke:#000000;stroke-width:1;stroke-linecap:round"
       d="M 84.921434,178.49573 V 171.2827"
       id="path34-89-0-0"
       sodipodi:nodetypes="cc" /><path
       style="fill:none;fill-opacity:1;stroke:#000000;stroke-width:1;stroke-linecap:round"
       d="M 110.20034,178.49573 V 171.2827"
       id="path34-89-0-0-0"
       sodipodi:nodetypes="cc" /><path
       style="fill:none;fill-opacity:1;stroke:#000000;stroke-width:1;stroke-linecap:round"
       d="M 174.5855,158.05057 V 147.12795"
       id="path34-89-4"
       sodipodi:nodetypes="cc" /><path
       id="path33-46"
       style="fill:none;fill-opacity:1;stroke:#000000;stroke-width:1;stroke-linecap:round"
       d="m 174.50413,176.42407 h 20.53285 m -20.53285,-11.05511 v 11.05511 h -31.39622"
       sodipodi:nodetypes="ccccc" /><path
       style="fill:none;fill-opacity:1;stroke:#000000;stroke-width:1;stroke-linecap:round"
       d="m 143.10791,181.67073 v -5.24666"
       id="path34-9-4"
       sodipodi:nodetypes="cc" /><path
       style="fill:none;fill-opacity:1;stroke:#000000;stroke-width:1;stroke-linecap:round"
       d="m 169.07244,181.67073 v -5.24666"
       id="path34-9-4-4"
       sodipodi:nodetypes="cc" /><path
       style="fill:none;fill-opacity:1;stroke:#000000;stroke-width:1;stroke-linecap:round"
       d="m 195.03698,181.67073 v -5.24666"
       id="path34-9-4-4-8"
       sodipodi:nodetypes="cc" /><path
       id="path33-4-8"
       style="fill:none;fill-opacity:1;stroke:#000000;stroke-width:1;stroke-linecap:round"
       d="m 99.418747,171.2827 h 10.781593 m -10.781593,-4.1759 v 4.1759 H 84.921434"
       sodipodi:nodetypes="ccccc" /><rect
       style="fill:none;fill-opacity:1;stroke:none;stroke-width:1;stroke-linecap:round"
       id="rect50"
       width="161.23141"
       height="77.727371"
       x="52.23008"
       y="117.28406"
       ry="0.22762546" /></g></svg>
